<svg width="170" height="38" viewBox="0 0 170 38" fill="none" xmlns="http://www.w3.org/2000/svg">
<path fill-rule="evenodd" clip-rule="evenodd" d="M19.9537 23.1433H12.471V14.4646H6.69498V23.1433C6.69498 23.1433 1.05019 23.1433 0 23.1433C0 25.7733 0 28.4032 1.05019 30.9016C2.10038 33.2686 4.20077 35.3725 6.95752 36.4245C9.71428 37.4764 12.9961 37.4764 16.278 37.4764C19.5598 37.4764 22.8417 37.4764 25.5984 36.4245C28.3552 35.3725 30.4556 33.2686 31.5058 30.9016C32.556 28.5347 32.556 25.9048 32.556 23.1433C31.5058 23.1433 25.861 23.1433 25.861 23.1433V14.4646H20.0849C19.9537 14.4646 19.9537 20.9079 19.9537 23.1433ZM4.98841 0C7.48262 0 11.8147 0 16.1467 0C20.4787 0 24.8108 0 27.305 0C29.7992 0 30.4556 0 30.9807 0.262993C31.5058 0.525985 31.8996 0.920474 32.1621 1.31496C32.4247 1.84095 32.4247 2.36693 32.4247 2.89292C32.4247 4.86536 32.4247 8.67875 32.4247 8.67875H20.2162L16.1467 12.7551L12.2085 8.67875H0C0 8.67875 0 4.86536 0 2.89292C0 2.36693 0 1.84095 0.262548 1.31496C0.393822 0.788978 0.787644 0.394489 1.31274 0.262993C1.83784 0 2.49421 0 4.98841 0Z" fill="#14C1DE"/>
<path fill-rule="evenodd" clip-rule="evenodd" d="M140.594 11.9662C140.594 13.4127 140.594 14.8592 140.594 16.3056C141.645 16.3056 142.695 16.3056 143.482 16.3056C144.533 16.3056 145.058 16.3056 145.583 16.1741C146.108 16.0426 146.37 15.6481 146.502 15.1221C146.633 14.5962 146.633 13.8072 146.502 13.2812C146.37 12.7552 145.977 12.3607 145.452 12.2292C144.926 12.0977 144.401 12.0977 143.482 12.0977C142.695 11.9662 141.645 11.9662 140.594 11.9662ZM158.71 11.9662C158.71 14.5962 158.71 17.2261 158.71 19.9875C159.76 19.9875 160.811 19.9875 161.73 19.9875C162.648 19.9875 163.436 19.9875 164.224 19.7245C164.88 19.4615 165.405 18.9355 165.668 18.2781C165.93 17.6206 165.93 16.8316 165.93 15.9111C165.93 15.1221 165.93 14.2017 165.668 13.5442C165.405 12.8867 164.88 12.3607 164.224 12.0977C163.567 11.8347 162.78 11.8347 161.73 11.8347C160.811 11.9662 159.76 11.9662 158.71 11.9662ZM86.5095 11.9662C86.5095 14.5962 86.5095 17.2261 86.5095 19.9875C87.5597 19.9875 88.6099 19.9875 89.5288 19.9875C90.4477 19.9875 91.2354 19.9875 92.023 19.7245C92.6794 19.4615 93.2045 18.9355 93.467 18.2781C93.7296 17.6206 93.7296 16.8316 93.7296 15.9111C93.7296 15.1221 93.7296 14.2017 93.467 13.5442C93.2045 12.8867 92.6794 12.3607 92.023 12.0977C91.3666 11.8347 90.579 11.8347 89.5288 11.8347C88.6099 11.9662 87.5597 11.9662 86.5095 11.9662ZM120.772 13.5442C120.509 14.2017 120.509 15.1221 120.509 16.0426C120.509 16.9631 120.509 17.8836 120.772 18.5411C121.035 19.1985 121.56 19.7245 122.216 19.9875C122.872 20.2505 123.791 20.2505 124.71 20.2505C125.629 20.2505 126.548 20.2505 127.204 19.9875C127.861 19.7245 128.386 19.1985 128.648 18.5411C128.911 17.8836 128.911 16.9631 128.911 16.0426C128.911 15.1221 128.911 14.2017 128.648 13.5442C128.386 12.8867 127.861 12.3607 127.204 12.0977C126.286 11.8347 125.367 11.8347 124.448 11.8347C123.529 11.8347 122.741 11.8347 122.085 12.0977C121.428 12.3607 121.035 12.7552 120.772 13.5442ZM62.6176 23.1434H58.2856V13.4127L53.4284 18.2781L48.5713 13.4127V23.1434H44.2393V8.67883H48.5713L53.4284 13.5442L58.2856 8.67883H62.6176V23.1434ZM66.4246 23.1434C66.4246 18.2781 66.4246 13.5442 66.4246 8.67883H78.3705V11.9662H70.7566V14.3332H78.3705V17.6206H70.7566V19.9875H78.3705V23.2749H66.4246V23.1434ZM101.212 23.1434V18.4096V15.1221V11.9662V8.67883H113.158V11.9662H105.544V15.2536H113.158V18.5411H105.544V23.2749H101.212V23.1434ZM119.197 22.6174C117.884 22.0915 116.965 21.0395 116.44 19.7245C115.915 18.5411 115.915 17.2261 115.915 15.9111C115.915 14.5962 115.915 13.2812 116.44 11.9662C116.965 10.7828 117.884 9.7308 119.197 9.20482C120.509 8.67883 122.085 8.67883 123.266 8.67883C124.316 8.67883 124.842 8.67883 125.892 8.67883C126.942 8.67883 128.648 8.67883 129.961 9.20482C131.274 9.7308 132.193 10.7828 132.718 11.9662C133.243 13.1497 133.243 14.4647 133.243 15.9111C133.243 17.2261 133.243 18.5411 132.718 19.856C132.193 21.0395 131.274 22.0915 129.961 22.6174C128.648 23.1434 127.073 23.1434 125.367 23.1434C124.842 23.1434 124.316 23.1434 123.791 23.1434C122.216 23.1434 120.509 23.1434 119.197 22.6174ZM136.262 23.1434C136.262 18.2781 136.262 13.5442 136.262 8.67883C137.706 8.67883 139.15 8.67883 140.594 8.67883C141.645 8.67883 142.695 8.67883 144.008 8.67883C145.32 8.67883 146.764 8.67883 147.946 9.07332C149.127 9.46781 150.177 10.2568 150.703 11.7032C151.228 13.1497 151.228 15.2536 150.703 16.7001C150.309 17.7521 149.652 18.4096 148.865 18.9355L151.359 23.2749H146.633L144.533 19.593C144.27 19.593 144.008 19.593 143.745 19.593C142.564 19.593 141.513 19.593 140.463 19.593C140.463 20.7765 140.463 21.96 140.463 23.2749C139.15 23.1434 137.706 23.1434 136.262 23.1434ZM154.378 23.1434C154.378 18.2781 154.378 13.5442 154.378 8.67883C156.741 8.67883 159.104 8.67883 161.204 8.67883C163.305 8.67883 165.143 8.67883 166.455 9.20482C167.899 9.7308 168.95 10.7828 169.475 11.9662C170 13.1497 170 14.4647 170 15.9111C170 17.2261 170 18.6725 169.475 19.856C168.95 21.0395 167.899 22.0915 166.455 22.6174C165.011 23.1434 163.174 23.1434 161.861 23.1434C160.548 23.1434 159.498 23.1434 158.579 23.1434C157.266 23.1434 155.822 23.1434 154.378 23.1434ZM82.1775 23.1434C82.1775 18.2781 82.1775 13.5442 82.1775 8.67883C84.5404 8.67883 86.9033 8.67883 89.0037 8.67883C91.1041 8.67883 92.9419 8.67883 94.2547 9.20482C95.6987 9.7308 96.7489 10.7828 97.274 11.9662C97.7991 13.1497 97.7991 14.4647 97.7991 15.9111C97.7991 17.2261 97.7991 18.6725 97.274 19.856C96.7489 21.0395 95.6987 22.0915 94.2547 22.6174C92.8107 23.1434 90.9728 23.1434 89.6601 23.1434C88.3473 23.1434 87.2971 23.1434 86.3782 23.1434C85.0655 23.1434 83.6215 23.1434 82.1775 23.1434Z" fill="black"/>
</svg>
